<svg id="Layer_1" data-name="Layer 1" xmlns="http://www.w3.org/2000/svg" viewBox="0 0 422.66 336.37">
  <defs>
    <style>
      .cls-1 {
        fill: #cc6683;
      }

      .cls-1, .cls-2, .cls-3, .cls-4, .cls-5, .cls-6 {
        stroke: #fff;
      }

      .cls-1, .cls-3, .cls-6 {
        stroke-miterlimit: 10;
      }

      .cls-2, .cls-4, .cls-5, .cls-6 {
        fill: none;
      }

      .cls-2, .cls-4, .cls-5 {
        stroke-linecap: round;
        stroke-linejoin: round;
      }

      .cls-2 {
        stroke-width: 12px;
      }

      .cls-3 {
        fill: #fff;
      }

      .cls-4, .cls-6 {
        stroke-width: 9px;
      }

      .cls-5 {
        stroke-width: 8px;
      }
    </style>
  </defs>
  <title>WATERLOGOwhite</title>
  <g id="SCENE">
    <path class="cls-1" d="M-34.12,295.88" transform="translate(-174.89 -180.55)"/>
    <path class="cls-2" d="M180.89,263.34s31.33,18.67,114,23.33L314.22,328s4,34,4.67,41.33,4,41.33,4,41.33,4.66,18.67,18,32" transform="translate(-174.89 -180.55)"/>
    <path class="cls-2" d="M590.89,264.67s-32.45,4.9-64,11.59c-15,3.18-29.76,6.76-40.72,10.41l-21.33,40s-5.34,14.67-5.34,22-3.33,62.67-3.33,62.67-2,8-5.33,11.33-14,20-14,20" transform="translate(-174.89 -180.55)"/>
    <path class="cls-2" d="M502.22,379.34c0-5.33-.67-27.33,6-46.67s18.72-56.41,18.72-56.41" transform="translate(-174.89 -180.55)"/>
    <polyline class="cls-2" points="76.66 197.46 76 172.12 54 99.46"/>
    <line class="cls-2" x1="80.66" y1="221.46" x2="81.33" y2="239.46"/>
    <line class="cls-2" x1="108.66" y1="234.79" x2="116" y2="262.12"/>
    <line class="cls-2" x1="324" y1="219.46" x2="322.66" y2="239.46"/>
    <polyline class="cls-2" points="388.66 184.12 384 220.12 376 234.79 358.66 260.12"/>
    <line class="cls-2" x1="7.33" y1="265.46" x2="416.66" y2="265.46"/>
    <line class="cls-2" x1="130.66" y1="127.46" x2="300" y2="127.46"/>
    <line class="cls-2" x1="184" y1="128.79" x2="184" y2="156.79"/>
    <line class="cls-2" x1="214.66" y1="127.46" x2="214.66" y2="188.12"/>
    <line class="cls-2" x1="243.33" y1="128.12" x2="243.33" y2="168.12"/>
    <line class="cls-2" x1="184.66" y1="196.79" x2="184.66" y2="234.12"/>
    <line class="cls-2" x1="219.33" y1="226.12" x2="219.33" y2="252.12"/>
    <line class="cls-2" x1="254" y1="198.79" x2="254" y2="234.12"/>
  </g>
  <g id="BUBBLES">
    <path class="cls-3" d="M471.55,436c0,7.18-7.53,13-16.83,13-5.79,0-10.89-2.26-13.93-5.69a23.54,23.54,0,0,1-18.07,8,23.88,23.88,0,0,1-16.65-6.5,7.69,7.69,0,0,1-5.18,2.17c-2.58,0-5-1.47-6.76-3.9a13.87,13.87,0,0,1-19.55,1.61q-.53-.45-1-.95a13.22,13.22,0,0,1-7.85,2.59,13.36,13.36,0,0,1-8.84-3.35,20.38,20.38,0,0,1-26.06-.06,13,13,0,0,1-9.1,3.74c-7.46,0-13.5-6.41-13.5-14.33s6-14.33,13.5-14.33a13.37,13.37,0,0,1,11.8,7.33,20.32,20.32,0,0,1,10.37-2.71,20.59,20.59,0,0,1,9.65,2.31,13.74,13.74,0,0,1,12.18-7.6A13.52,13.52,0,0,1,375.87,422a13.85,13.85,0,0,1,16.22.63c1.81-4.57,5.08-7.61,8.8-7.61a8,8,0,0,1,5.71,2.67,24,24,0,0,1,16.12-6c10.19,0,18.79,6,21.56,14.15A19.9,19.9,0,0,1,454.72,423C464,423,471.55,428.83,471.55,436Z" transform="translate(-174.89 -180.55)"/>
  </g>
  <g id="trees">
    <g>
      <path class="cls-4" d="M249.39,244.2s13.33-12.86,13.83-13.33v51.8" transform="translate(-174.89 -180.55)"/>
      <line class="cls-4" x1="101.41" y1="63.9" x2="88.33" y2="50.32"/>
      <polyline class="cls-4" points="74 86.53 88.33 74.21 102.66 86.28"/>
    </g>
    <g>
      <path class="cls-5" d="M508,240.67s11.78-11.33,12.22-11.77v45.77" transform="translate(-174.89 -180.55)"/>
      <line class="cls-5" x1="356.89" y1="60.34" x2="345.33" y2="48.34"/>
      <polyline class="cls-5" points="332.66 80.34 345.33 69.46 358 80.12"/>
    </g>
  </g>
  <g id="Layer_6" data-name="Layer 6">
    <circle class="cls-6" cx="211.62" cy="42.42" r="37.92"/>
  </g>
  <g>
    <path class="cls-3" d="M223.66,488.35V485.9q0-19.53,5-19.53a3.37,3.37,0,0,1,1,.21,19.22,19.22,0,0,0,4.41,1q1.33.28,2.66,2.73a20.36,20.36,0,0,1,2.2,6.65,48.24,48.24,0,0,1,.74,8.47l-.14.35q0,2.31.07,4.13l.07,4.2q0,3.57-.28,6.44A37.67,37.67,0,0,1,238,508a14.24,14.24,0,0,1-1.44,3.15,7.46,7.46,0,0,1-2,2.1,4.42,4.42,0,0,1-2.73.84Q223.66,514.11,223.66,488.35Zm12,19.88a31.54,31.54,0,0,0,1.61-8q.28-4.2.28-6.72,0-2.8-.42-8.26-.35-6.09-.35-8.26l-.28-.56.14-.35a8.5,8.5,0,0,0-1.71-5.32,5.1,5.1,0,0,0-4.17-2.24,3.52,3.52,0,0,0-3.85,3.08q-.14,1.05-.28,3a38.72,38.72,0,0,1-.42,7.07q0,1.05-.21,3.29l-.14,3.29q0,1.54.07,2.73l.07,2.8a58.77,58.77,0,0,0,.56,7.56,45.88,45.88,0,0,0,1,5.32,11.73,11.73,0,0,0,1.61,3.71,3,3,0,0,0,2.45,1.68Q234.3,512.08,235.63,508.23Z" transform="translate(-174.89 -180.55)"/>
    <path class="cls-3" d="M266.08,513.06l-.25-.42a5,5,0,0,1-.46-1.26,3,3,0,0,0-.28-1l.07-.21a44.22,44.22,0,0,0-2.38-8l-1.26-3.64a34.74,34.74,0,0,1-1.33-3.57l-.56-1.68q-6.3-19.46-7.91-21.07a17.65,17.65,0,0,0-.56,4.9q0,1.61.07,2.8l.07,2.73-.07,1.68q-.07.77-.07,1.68a21.59,21.59,0,0,0,.14,2.66l.14,2.24h-.21q0,11.69.49,12.88v6.3a3.32,3.32,0,0,1,.28,1.47,1.4,1.4,0,0,1-.38,1,1.23,1.23,0,0,1-.94.42q-1.47,0-1.47-3.78l.14-2.24a17.65,17.65,0,0,0,.14-2.31q0-3.36-.21-10.08t-.21-10.08q0-2,.21-6.23t.21-6.16v-.91q0-3.43,1.26-4.48l.21.21.7-.14a1.48,1.48,0,0,1,.63.42.87.87,0,0,1,.28.63l.14.42a1.14,1.14,0,0,0,.07.35,83.91,83.91,0,0,0,5,13.93q4,9.45,5,12.53.7,2.45,1.12,4.34a34.36,34.36,0,0,0,3.15,9.17l.14-.21a379.52,379.52,0,0,0,1.61-38.15l-.07-.84a4.74,4.74,0,0,1-.07-.91q0-1.47,1-1.47a1.32,1.32,0,0,1,1.08.63,2.34,2.34,0,0,1,.46,1.4v4.69l-.35.56q0,6.65-.77,21.84t-1.47,16.52l-1.19.28v.07l-.07-.07-.7.21Z" transform="translate(-174.89 -180.55)"/>
    <path class="cls-3" d="M285.61,511.8l-.07-2.59q-.07-1.12-.07-2.52a8.58,8.58,0,0,1,.07-1.19l.07-1.26a6.3,6.3,0,0,0-.28-1.68q0-4.69-.7-17.43-.7-12.32-.77-16.73a50.77,50.77,0,0,1-5.81-.21q-1.4-.35-1.4-1.12a1.32,1.32,0,0,1,1.33-.77q2.1,0,6.09.28,3.64.35,6.09.35h1.47l1.47-.07q1.26,0,1.26.91a.74.74,0,0,1-.46.67,2.25,2.25,0,0,1-1.08.25q-1.4,0-2.94-.14l-3-.14c-.19,0-.28.07-.28.21a6.61,6.61,0,0,0-.07,1.33q0,6.79.84,20.58.77,14.28.77,20.51a1.16,1.16,0,0,1-.6.91,2,2,0,0,1-1.15.42Z" transform="translate(-174.89 -180.55)"/>
    <path class="cls-3" d="M314.52,513.41l-.28-.25a2.31,2.31,0,0,1-.42-1.29q-.63-5.11-.77-6.37l-.35-2.8a15.92,15.92,0,0,0-3.5-.35l-2.52-.14a22.29,22.29,0,0,0-2.45-.21.43.43,0,0,0-.49.35c0,.14,0,.21-.07.21l-.14,1.4a50.56,50.56,0,0,1-.77,5,12.71,12.71,0,0,1-.84,2.94q-.56,1.19-1.05,1.19a1.52,1.52,0,0,1-.91-.38,1.06,1.06,0,0,1-.49-.8l.07-.21.07-.21q1.26-5,2.1-9.87l.84-4.34.84-5.32.77-4.62q.35-1.89,1.26-6.09,1-4.76,1.19-6.51.07-.21.28-2.59.28-2.66.49-3.92a6.69,6.69,0,0,1,.42-2.1h.49a1.55,1.55,0,0,0,.49.07,1.71,1.71,0,0,0,1.26-.42,1.35,1.35,0,0,1,.88.31.93.93,0,0,1,.39.74,69.5,69.5,0,0,0,.49,7.7q.28,2.24.42,3.71.77,9,3.92,33.88v.21a1.16,1.16,0,0,1-.56,1Zm-2.17-12.6q-.7-10.08-2.66-29.75l-3.78,18.69a73.07,73.07,0,0,0-1.61,10.15q0,.35,2.66.63a45.19,45.19,0,0,0,4.69.28Z" transform="translate(-174.89 -180.55)"/>
    <path class="cls-3" d="M334.4,513.62q-.84-.91-1.82-4.83T330.76,500a66.13,66.13,0,0,0-1.61-7.91q-.84-3.5-1.61-3.5h-.21q-1.54,0-1.54,1,0,5,.56,15.33a45.75,45.75,0,0,0,.63,7.35l-.56,1.19h-1l-.56-.56q-1.12-32.34-1.12-44.1a6.21,6.21,0,0,1,.1-1.26,2.1,2.1,0,0,1,.46-.91,1,1,0,0,1,1-.49,8.88,8.88,0,0,1,5.74,1.75,6.1,6.1,0,0,1,2.17,5V478a10.52,10.52,0,0,1-.87,3.57,33.88,33.88,0,0,1-1.93,4.13l-.91,1.75q.77,3.57,3,12.84t2.48,9.83a1.18,1.18,0,0,1,.18.35,5.29,5.29,0,0,0,.45.84,3.91,3.91,0,0,1,.49,1.68q0,1-.77,1Zm-5.88-28.14a10.23,10.23,0,0,0,1.68-3.43,28.44,28.44,0,0,0,1.12-6.79,16.77,16.77,0,0,0-.17-2.66,13.41,13.41,0,0,0-.6-2.24q-.84-2.45-4-2.45c-.23,0-.42.2-.56.59a3.66,3.66,0,0,0-.21,1.23q0,4.69.14,8.47t.07,8.47l.14.14A3,3,0,0,0,328.52,485.48Z" transform="translate(-174.89 -180.55)"/>
    <path class="cls-3" d="M345.88,512.08a1.84,1.84,0,0,0-.56.07h-.56q-1.54,0-2-.7a1,1,0,0,1,.56-.84l.35-.35h2L346,510l.14-.63.07-.84q0-4.27-.21-7.63l-.14-2.59-.14-5.11q0-2.73.21-8.19l.14-8.12a70.55,70.55,0,0,0-.35-8.12,7.38,7.38,0,0,0-2.1-.21l-.77.07a5.52,5.52,0,0,1-.91.07q-1.33,0-1.33-1.19c0-.19.21-.37.63-.56a2.72,2.72,0,0,1,1-.28,50.85,50.85,0,0,1,5.32.28,11.27,11.27,0,0,1,3.22.63q1.26.42,1.26,1.19a1.69,1.69,0,0,1-.21.56l-1.61.14a3.35,3.35,0,0,0-2-.42l-.35.21a17.75,17.75,0,0,1,.21,3.71q0,4.62-.07,8.33l-.14,8.33q0,3.15.28,7.63.21,5.11.21,7.7v.91a9.11,9.11,0,0,0-.07,1.26,5.17,5.17,0,0,0,.21,2l-.07.14q0,.7,1.54.7a6.41,6.41,0,0,0,1-.07h1.05q2,0,2,1a1.31,1.31,0,0,1-.42,1,1.59,1.59,0,0,1-1.12.39,4,4,0,0,1-1.12-.14,9.77,9.77,0,0,0-1.19-.07,3.69,3.69,0,0,0-1.26.35,3.22,3.22,0,0,1-1.26.42Q346.16,512.78,345.88,512.08Z" transform="translate(-174.89 -180.55)"/>
    <path class="cls-3" d="M359.67,488.35V485.9q0-19.53,5-19.53a3.37,3.37,0,0,1,1,.21,19.22,19.22,0,0,0,4.41,1q1.33.28,2.66,2.73a20.36,20.36,0,0,1,2.2,6.65,48.24,48.24,0,0,1,.74,8.47l-.14.35q0,2.31.07,4.13l.07,4.2q0,3.57-.28,6.44A37.67,37.67,0,0,1,374,508a14.24,14.24,0,0,1-1.44,3.15,7.46,7.46,0,0,1-2,2.1,4.42,4.42,0,0,1-2.73.84Q359.67,514.11,359.67,488.35Zm12,19.88a31.54,31.54,0,0,0,1.61-8q.28-4.2.28-6.72,0-2.8-.42-8.26-.35-6.09-.35-8.26l-.28-.56.14-.35a8.5,8.5,0,0,0-1.71-5.32,5.1,5.1,0,0,0-4.17-2.24,3.52,3.52,0,0,0-3.85,3.08q-.14,1.05-.28,3a38.72,38.72,0,0,1-.42,7.07q0,1.05-.21,3.29l-.14,3.29q0,1.54.07,2.73l.07,2.8a58.77,58.77,0,0,0,.56,7.56,45.88,45.88,0,0,0,1,5.32,11.73,11.73,0,0,0,1.61,3.71,3,3,0,0,0,2.45,1.68Q370.31,512.08,371.64,508.23Z" transform="translate(-174.89 -180.55)"/>
    <path class="cls-3" d="M396.06,513a1.5,1.5,0,0,1-.77-1.08l.35-.56a8.23,8.23,0,0,1,1.26.21,3.85,3.85,0,0,0,1.26.28,3.71,3.71,0,0,0,2.73-1.22,8,8,0,0,0,1.82-3.19,26.43,26.43,0,0,0,1-6.86,22.22,22.22,0,0,0-2.94-10.36q-1.82-3.22-2.8-5.11a26.87,26.87,0,0,1-1.75-4.34,18.24,18.24,0,0,1-.91-5.53,17.69,17.69,0,0,1,1.26-6,6.65,6.65,0,0,1,1.79-2.62,3.7,3.7,0,0,1,2.49-1,3,3,0,0,1,1.78.63,1.72,1.72,0,0,1,.88,1.33q0,.56-.91.56a1.65,1.65,0,0,1-.7-.21,1.74,1.74,0,0,0-.77-.21,2.61,2.61,0,0,0-1.89.84,5.23,5.23,0,0,0-1.26,2.17,15.52,15.52,0,0,0-.84,4.76,11.18,11.18,0,0,0,.35,2.73c0,.28.09.51.14.7a2,2,0,0,1,.07.42l.42,1.4.35,1.26.56,1.26a5.94,5.94,0,0,0,.46.88l.46.73.84,1.47q.28.42,1.19,2a34.66,34.66,0,0,1,1.68,3.32,16.68,16.68,0,0,1,1,2.77,29,29,0,0,1,.63,3.11,32.34,32.34,0,0,1,.21,3.85,21.2,21.2,0,0,1-.91,6.3,8.87,8.87,0,0,1-3.64,4.9,5.65,5.65,0,0,1-3.08.84l-.35.14A4,4,0,0,1,396.06,513Zm7.07-45a.06.06,0,0,0-.07-.07V468Z" transform="translate(-174.89 -180.55)"/>
    <path class="cls-3" d="M418.92,513.1a7.91,7.91,0,0,1-2.14-1.72q-1-1.26-1.54-7.07t-.7-13.3q0-1.68-.07-2.52-.14-17.57-.56-20.79l.42-1q1.61.21,1.61,3.85l.21,18.55q0,2,.35,7.42.42,4.9.42,7.42,0,8,5.25,8,3.22,0,4.13-14.7l.07-1.4q.49-19.25.49-28.49l-.07-.63a2.54,2.54,0,0,1-.07-.63c0-.51.4-.77,1.19-.77q.84,0,1,.42a14.51,14.51,0,0,1,.14,2.45,38.59,38.59,0,0,1-.42,7.14l.07.42q0,.91-.21,2.8l-.14,2.8v.7a3,3,0,0,1,.07.7q-.14,1.68-.14,3.22a11.83,11.83,0,0,0-.07,1.54q-.14,6.65-.28,11.55a35.1,35.1,0,0,1-1.68,10.29q-1.54,4.48-5,4.48A4.94,4.94,0,0,1,418.92,513.1Z" transform="translate(-174.89 -180.55)"/>
    <path class="cls-3" d="M465.85,511.94v-4.62q0-10.08-.42-15.75l-.21-2.59a19.68,19.68,0,0,1-.28-3.08q0-2.38.14-4.34l.14-4.34a14.52,14.52,0,0,0-.28-3.29q-1.4,1-8.47,29.47l-.07,1a14.65,14.65,0,0,1-.56,2.8,2.85,2.85,0,0,1-.59,1.19,1.16,1.16,0,0,1-.87.42,2,2,0,0,1-1.61-.56,2.6,2.6,0,0,1-.49-1.75,66.13,66.13,0,0,0-1.79-9.8q-1.78-7.91-3.85-15.19t-2.83-8q-.07,2.45-.56,11.55-1,16.1-1,25.34l.07,2.8a1.34,1.34,0,0,1-1.47.91,1.49,1.49,0,0,1-.7-.38c-.33-.26-.49-.46-.49-.6q0-6.3,1.12-22.12,1.05-14.7,1-22.05a1.88,1.88,0,0,0-.14-.7,1.6,1.6,0,0,1-.21-.63q0-1,1.82-1a1.25,1.25,0,0,1,1.4,1,11.93,11.93,0,0,1,.28,2.1l.07.84a29.38,29.38,0,0,0,2,5.6,51.48,51.48,0,0,1,2,5.25q.42,1.68.77,2.73,1.12,4.06,1.47,6l.91,1.82q.21,1.05.84,3.43.63,2.66.91,4.34a19.61,19.61,0,0,1,.28,3.22q.77-1.19,4.38-14.32t4.23-16.76a1.33,1.33,0,0,0,.11-.38c0-.16.06-.39.1-.67q.14-.91.63-2.73.56-1.4,1.68-1.4a2.09,2.09,0,0,1,1.12.42q.63.42.63.84,0,29.19.91,30.87v3.64q-.07,1.61-.07,3.71a33.94,33.94,0,0,0,.49,6.72.45.45,0,0,1,.1.21c0,.09.06.21.11.35a2.63,2.63,0,0,1,.07.63,3,3,0,0,1-.46,1.54,1.29,1.29,0,0,1-1.08.77Q465.85,516.42,465.85,511.94Zm-.91-38.43h-.07l-.14.07.21.07Z" transform="translate(-174.89 -180.55)"/>
    <path class="cls-3" d="M505.54,511.94v-4.62q0-10.08-.42-15.75l-.21-2.59a19.68,19.68,0,0,1-.28-3.08q0-2.38.14-4.34l.14-4.34a14.52,14.52,0,0,0-.28-3.29q-1.4,1-8.47,29.47l-.07,1a14.73,14.73,0,0,1-.56,2.8,2.85,2.85,0,0,1-.6,1.19,1.16,1.16,0,0,1-.87.42,2,2,0,0,1-1.61-.56,2.6,2.6,0,0,1-.49-1.75,66.13,66.13,0,0,0-1.79-9.8q-1.78-7.91-3.85-15.19t-2.83-8q-.07,2.45-.56,11.55-1,16.1-1,25.34l.07,2.8a1.34,1.34,0,0,1-1.47.91,1.5,1.5,0,0,1-.7-.38c-.33-.26-.49-.46-.49-.6q0-6.3,1.12-22.12,1-14.7,1-22.05a1.87,1.87,0,0,0-.14-.7,1.62,1.62,0,0,1-.21-.63q0-1,1.82-1a1.25,1.25,0,0,1,1.4,1,11.91,11.91,0,0,1,.28,2.1l.07.84a29.38,29.38,0,0,0,2,5.6,51.22,51.22,0,0,1,2,5.25q.42,1.68.77,2.73,1.12,4.06,1.47,6L492,492q.21,1.05.84,3.43.63,2.66.91,4.34A19.71,19.71,0,0,1,494,503q.77-1.19,4.38-14.32t4.23-16.76a1.33,1.33,0,0,0,.11-.38c0-.16.06-.39.1-.67q.14-.91.63-2.73.56-1.4,1.68-1.4a2.09,2.09,0,0,1,1.12.42q.63.42.63.84,0,29.19.91,30.87v3.64q-.07,1.61-.07,3.71a33.94,33.94,0,0,0,.49,6.72.45.45,0,0,1,.1.21c0,.09.06.21.11.35a2.63,2.63,0,0,1,.07.63,3,3,0,0,1-.46,1.54,1.29,1.29,0,0,1-1.08.77Q505.54,516.42,505.54,511.94Zm-.91-38.43h-.07l-.14.07.21.07Z" transform="translate(-174.89 -180.55)"/>
    <path class="cls-3" d="M518.91,512.22v-.91a4.41,4.41,0,0,0,.07-.84l-.28-.28a8,8,0,0,0,.56-2.87q0-1.61-.21-4.62l-.14-4.62q0-3.5.21-10.5.28-6.23.28-10.57l-.14-4.2q-.14-1.89-.14-4.2a2,2,0,0,1,.49-1.5,2.21,2.21,0,0,1,1.54-.46,1.51,1.51,0,0,1,1.12.42,17.12,17.12,0,0,0,2,.28,15.38,15.38,0,0,1,3,.63q1.33.42,1.33,1t-1.33,1.4a21.14,21.14,0,0,0-5.67-1.33l-.35.42q.07.63.07,3,0,3-.14,5.39t-.07,5.46q0,2,1,2l1.12-.07a9.76,9.76,0,0,1,1.19-.07q2.73,0,2.73,1.26a2.28,2.28,0,0,1-.35,1.29,1.18,1.18,0,0,1-1,.53,2.18,2.18,0,0,1-1.61-.56l-2.24-.35h-.35l-.35.35v.21q.14,1.19.14,5.53,0,2.73-.07,5l-.07,5q0,2.73.21,5.6a2.91,2.91,0,0,0,.7,2.14,3.73,3.73,0,0,0,2.31.52l1.26-.07a13,13,0,0,1,1.4-.07q2,0,2,.91,0,1.26-3.08,1.26h-5.74Q519.05,513.69,518.91,512.22Z" transform="translate(-174.89 -180.55)"/>
    <path class="cls-3" d="M547.61,513.62q-.84-.91-1.82-4.83T544,500a66.13,66.13,0,0,0-1.61-7.91q-.84-3.5-1.61-3.5h-.21q-1.54,0-1.54,1,0,5,.56,15.33a45.75,45.75,0,0,0,.63,7.35l-.56,1.19h-1l-.56-.56Q537,480.51,537,468.75a6.18,6.18,0,0,1,.1-1.26,2.09,2.09,0,0,1,.46-.91,1,1,0,0,1,1-.49,8.88,8.88,0,0,1,5.74,1.75,6.1,6.1,0,0,1,2.17,5V478a10.52,10.52,0,0,1-.87,3.57,33.88,33.88,0,0,1-1.92,4.13l-.91,1.75q.77,3.57,3,12.84t2.49,9.83a1.16,1.16,0,0,1,.17.35,5.39,5.39,0,0,0,.46.84,3.91,3.91,0,0,1,.49,1.68q0,1-.77,1Zm-5.88-28.14a10.22,10.22,0,0,0,1.68-3.43,28.44,28.44,0,0,0,1.12-6.79,16.71,16.71,0,0,0-.17-2.66,13.5,13.5,0,0,0-.59-2.24q-.84-2.45-4-2.45c-.23,0-.42.2-.56.59a3.67,3.67,0,0,0-.21,1.23q0,4.69.14,8.47t.07,8.47l.14.14A3,3,0,0,0,541.73,485.48Z" transform="translate(-174.89 -180.55)"/>
  </g>
</svg>
